<svg xmlns="http://www.w3.org/2000/svg" version="1.1" x="0" y="0" width="594.9" height="265.1px" viewBox="227 677.9 594.9 265.1" enable-background="new 227 677.9 594.9 265.1" xml:space="preserve"><path fill="#5D1F62" d="M386.6 888.1c-17.7 0-30.8-14.8-30.8-31.7 0-17.3 14.4-31.2 31.2-31.2 17.3 0 30.4 14.8 30.4 31.7C417.8 874.2 403.9 888.1 386.6 888.1M387 802c-30 0-54.5 24.1-54.5 54.5 0 30 24.1 54.5 54 54.5C417 910.9 441 886 441 856 441 826.9 417 802 387 802M502.7 888.1c-17.7 0-30.8-14.8-30.8-31.7 0-17.3 14.4-31.2 31.2-31.2 17.3 0 30.4 14.8 30.4 31.7C533.9 874.2 520 888.1 502.7 888.1M503.1 802c-30 0-54.5 24.1-54.5 54.5 0 30 24.1 54.5 54 54.5 30.4 0 54.5-24.9 54.5-54.9C557.1 826.9 533.1 802 503.1 802M693.9 770.3c-6.8 0-12.2 5.5-12.2 12.2l0 0 0 0v116.5c0 6.8 5.5 12.2 12.2 12.2 6.8 0 12.2-5.5 12.2-12.2l0 0 0 0V782.6C706.2 775.4 700.3 770.3 693.9 770.3M619.6 888.1c-17.3 0-31.2-13.9-31.2-31.2 0-16.9 13.5-31.7 30.4-31.7 16.9 0 31.2 13.9 31.2 31.2C650.5 873.3 637.4 888.1 619.6 888.1M619.6 802c-11.4 0-22 3.4-30.4 9.3l0 0c-1.3-5.5-6.3-9.3-11.8-9.3 -6.8 0-11.8 5.5-11.8 12.2v116.5c0 6.8 5.5 12.2 11.8 12.2 6.3 0 11.8-5.5 11.8-12.2v-29.1c8.4 5.5 19 9.3 30 9.3 30 0 54.5-24.1 54.5-54.5C673.7 826.9 650 802 619.6 802M767.4 888.1c-17.7 0-30.8-14.8-30.8-31.7 0-17.3 14.4-31.2 31.2-31.2 17.3 0 30.4 14.8 30.4 31.7C798.6 874.2 784.7 888.1 767.4 888.1M810 802c-5.5 0-10.6 3.8-11.8 9.3 -8.9-5.9-19-9.7-30.4-9.7 -30 0-54 24.9-54 54.5 0 30 24.5 54.5 54.5 54.5 11 0 21.5-3.4 30-9.3 1.3 5.5 6.3 9.3 11.8 9.3 6.8 0 11.8-5.5 11.8-11.8v-85.3C822.3 807.5 816.8 802 810 802M315.7 861.9c-6.8 0-11.8 5.5-11.8 11.8V886h-44.3l62.5-91.2c1.7-2.5 2.5-5.5 2.5-8.9 0-8.4-6.8-15.2-15.2-15.2h-69.7l0 0 0 0c-6.8 0-11.8 5.5-11.8 11.8 0 6.8 5.5 12.2 12.2 12.2h52.8L230 886c0 0-3 4.2-3 8.9 0 8.4 6.8 15.2 15.2 15.2h85.3v-36.3C327.9 867.4 322 861.9 315.7 861.9M244.7 703.2c2.5 0 4.6 0 6.3-0.4 1.7-0.4 3.4-0.8 4.6-1.7 1.3-0.8 2.5-1.7 3-3.4 0.4-1.7 1.3-3.4 1.3-5.5 0-3.4-1.3-5.9-3.4-7.6 -2.1-1.7-5.5-2.5-10.6-2.5h-13.1v21.1L244.7 703.2 244.7 703.2zM228.3 731.1v-53.2h19.4c3.4 0 6.3 0.4 8.9 1.3 2.5 0.8 3.8 1.7 5.5 3.4 1.3 1.7 2.1 3 2.5 4.6s0.8 3.4 0.8 5.5c0 3-0.4 5.5-1.7 7.2 -1.3 1.7-2.5 3.4-4.6 4.6 -1.7 1.3-4.2 1.7-6.8 2.5 -2.5 0.4-4.6 0.4-7.6 0.4h-11.4v23.6H228.3L228.3 731.1zM299.2 712.1c0-2.5-0.4-4.6-0.4-6.3 -0.4-2.1-1.3-3.4-2.5-5.1 -0.8-1.7-2.5-2.5-3.8-3.4 -1.7-0.4-3.4-1.3-5.9-1.3s-4.2 0.4-5.9 1.7c-1.7 0.8-3 2.1-3.8 3.4 -0.8 1.7-1.7 3.4-2.5 5.1 -0.4 2.1-0.4 3.8-0.4 5.9 0 2.5 0.4 4.6 0.8 6.8 0.4 2.1 1.7 3.4 2.5 5.1 1.3 1.7 2.5 2.5 4.2 3.4 1.7 0.8 3.4 1.3 5.5 1.3 2.5 0 4.2-0.4 5.9-1.7 1.7-0.8 3-2.1 3.8-3.4 0.8-1.7 1.7-3.4 2.5-5.1C298.8 716.3 299.2 714.2 299.2 712.1M286.1 731.9c-2.5 0-4.6-0.4-6.8-1.3 -2.1-0.8-3.8-2.1-5.5-3.8 -1.7-1.7-3-3.8-3.8-6.3 -0.8-2.5-1.7-5.5-1.7-8.9 0-2.5 0.4-5.5 1.3-7.6 0.4-2.5 1.7-4.6 3.4-6.3 1.7-1.7 3.4-3.4 5.5-4.2 2.1-1.3 4.6-1.7 7.6-1.7 3 0 5.5 0.4 7.6 1.7 2.1 1.3 4.2 2.5 5.5 4.2 1.7 1.7 2.5 3.8 3.4 6.3 0.4 2.5 1.3 5.1 1.3 7.6 0 3-0.4 5.5-1.3 8.4 -0.8 2.5-2.1 4.6-3.4 6.3 -1.7 1.7-3.4 3.4-5.5 4.2C291.2 731.9 288.6 731.9 286.1 731.9"/><polygon fill="#5D1F62" points="344.4 725.2 354.5 693.1 358.7 693.1 346.5 731.1 341.4 731.1 333 699 333 699 324.5 731.1 319.5 731.1 307.6 693.1 311.9 693.1 322 725.6 330.9 693.1 335.9 693.1 "/><path fill="#5D1F62" d="M391.7 709.5c0-1.7-0.4-3.4-0.8-5.5 -0.4-1.7-1.3-3-2.5-4.2 -0.8-1.3-2.5-2.1-3.8-3 -1.7-0.4-3.4-1.3-5.5-1.3 -2.1 0-3.4 0.4-5.1 1.3 -1.7 0.4-2.5 1.7-3.8 3 -1.3 1.3-1.7 2.5-2.5 4.2 -0.4 1.7-1.3 3.4-1.3 5.1L391.7 709.5 391.7 709.5zM366.7 712.9c0 2.1 0.4 3.8 0.8 5.9 0.4 1.7 1.3 3.4 2.5 4.6 1.3 1.7 2.5 2.5 3.8 3.4 1.7 0.8 3.4 1.3 5.5 1.3 3 0 5.5-0.8 7.6-2.5 2.1-1.7 3.4-3.4 4.2-6.8h5.1c-0.4 1.7-1.3 3.4-2.1 5.1 -0.8 1.7-2.1 3-3.4 4.2 -1.3 1.3-3 2.1-4.6 2.5 -1.7 0.4-3.8 0.8-6.3 0.8 -3 0-5.5-0.4-7.6-1.7 -2.1-0.8-4.2-2.5-5.5-4.2 -1.7-1.7-2.5-3.8-3.4-6.3 -0.4-2.5-0.8-5.1-0.8-7.6 0-2.5 0.4-5.5 1.3-7.6 0.8-2.5 2.1-4.6 3.4-6.8 1.7-1.7 3.4-3.4 5.5-4.6 2.1-1.3 4.6-1.7 7.6-1.7 5.5 0 9.3 1.7 12.7 5.5 3 3.4 4.6 8.9 4.6 15.6L366.7 712.9 366.7 712.9zM409.4 731.1h-4.6v-38.4h4.6v7.2h0.4c1.3-3 2.5-5.1 4.6-6.3 1.7-1.3 4.6-1.7 7.6-1.7v4.6c-2.5 0-4.6 0.4-6.3 1.3 -1.7 0.8-3 2.1-3.8 3.4 -0.8 1.7-1.7 3-2.1 5.1 -0.4 2.1-0.4 3.8-0.4 5.9V731.1zM455 709.5c0-1.7-0.4-3.4-0.8-5.5 -0.4-1.7-1.3-3-2.5-4.2 -0.8-1.3-2.5-2.1-3.8-3 -1.7-0.4-3.4-1.3-5.5-1.3 -2.1 0-3.4 0.4-5.1 1.3 -1.7 0.4-2.5 1.7-3.8 3 -1.3 1.3-1.7 2.5-2.5 4.2 -0.4 1.7-1.3 3.4-1.3 5.1L455 709.5 455 709.5zM429.6 712.9c0 2.1 0.4 3.8 0.8 5.9 0.4 1.7 1.3 3.4 2.5 4.6 1.3 1.7 2.5 2.5 3.8 3.4 1.7 0.8 3.4 1.3 5.5 1.3 3 0 5.5-0.8 7.6-2.5 2.1-1.7 3.4-3.4 4.2-6.8h5.1c-0.4 1.7-1.3 3.4-2.1 5.1 -0.8 1.7-2.1 3-3.4 4.2 -1.3 1.3-3 2.1-4.6 2.5 -1.7 0.4-3.8 0.8-6.3 0.8 -3 0-5.5-0.4-7.6-1.7 -2.1-0.8-4.2-2.5-5.5-4.2 -1.7-1.7-2.5-3.8-3.4-6.3 -0.4-2.5-0.8-5.1-0.8-7.6 0-2.5 0.4-5.5 1.3-7.6 0.8-2.5 2.1-4.6 3.4-6.8 1.7-1.7 3.4-3.4 5.5-4.6 2.1-1.3 4.6-1.7 7.6-1.7 5.5 0 9.3 1.7 12.7 5.5 3 3.4 4.6 8.9 4.6 15.6L429.6 712.9 429.6 712.9zM497.2 711.6c0-2.1-0.4-4.2-0.8-6.3 -0.4-2.1-1.7-3.4-2.5-5.1 -1.3-1.7-2.5-2.5-4.2-3.4 -1.7-0.8-3.4-1.3-5.5-1.3 -2.5 0-4.2 0.4-5.9 1.7 -1.7 0.8-3 2.1-4.2 3.4 -1.3 1.7-1.7 3.4-2.5 5.5 -0.4 2.1-0.4 4.6-0.4 6.8s0.4 4.6 0.8 6.3 1.7 3.4 2.5 4.6c1.3 1.3 2.5 2.5 4.2 3 1.7 0.4 3.4 0.8 5.1 0.8 2.1 0 3.8-0.4 5.5-1.3 1.7-0.8 3-2.1 4.2-3.4 1.3-1.7 1.7-3.4 2.5-5.1C496.8 716.3 497.2 714.2 497.2 711.6M497.2 677.9h4.6v53.2h-4.6v-6.8h-0.4c-0.4 1.3-1.7 2.5-2.5 3.4 -0.8 0.8-2.1 1.7-3.4 2.5 -1.3 0.4-2.5 1.3-3.4 1.7 -1.3 0.4-2.5 0.4-3.8 0.4 -3 0-5.5-0.4-7.6-1.7 -2.1-0.8-3.8-2.5-5.5-4.2 -1.7-1.7-2.5-3.8-3-6.3s-0.8-5.1-0.8-7.6c0-2.5 0.4-5.1 0.8-7.6 0.4-2.5 1.7-4.6 3.4-6.8 1.7-1.7 3.4-3.4 5.5-4.6 2.1-1.3 4.6-1.7 7.6-1.7 3 0 5.5 0.4 7.6 1.7 2.5 1.3 4.6 3 5.9 5.5L497.2 677.9 497.2 677.9zM535.6 711.6c0 2.5 0.4 4.6 0.8 6.8 0.4 2.1 1.7 3.4 2.5 5.1 1.3 1.7 2.5 2.5 4.2 3.4 1.7 0.8 3.4 1.3 5.5 1.3 1.7 0 3.4-0.4 5.1-0.8 1.7-0.4 3-1.7 4.2-3 1.3-1.3 2.1-3 2.5-4.6 0.4-1.7 0.8-3.8 0.8-6.3 0-2.5 0-4.6-0.4-6.8 -0.4-2.1-1.3-3.8-2.5-5.5 -1.3-1.7-2.5-2.5-4.2-3.4 -1.7-0.8-3.4-1.7-5.9-1.7 -2.1 0-3.8 0.4-5.5 1.3 -1.7 0.8-3 2.1-4.2 3.4 -1.3 1.3-2.1 3.4-2.5 5.1C536 707.4 535.6 709.5 535.6 711.6M535.6 731.1h-4.2v-53.2h4.6v20.7c1.7-2.5 3.4-4.2 5.9-5.5s5.1-1.7 7.6-1.7c3 0 5.5 0.4 7.6 1.7s3.8 2.5 5.5 4.6c1.7 1.7 2.5 3.8 3.4 6.8 0.4 2.5 0.8 5.1 0.8 7.6s-0.4 5.5-0.8 7.6c-0.4 2.5-1.7 4.6-3 6.3 -1.7 1.7-3.4 3.4-5.5 4.2 -2.1 0.8-4.6 1.7-7.6 1.7 -1.3 0-2.5-0.4-3.8-0.4 -1.3-0.4-2.5-0.8-3.4-1.7s-2.5-1.7-3.4-2.5c-0.8-0.8-1.7-2.1-2.5-3.4l0 0v6.8h-1.3V731.1zM574 741.6c0.4 0 1.3 0.4 1.7 0.4 0.4 0 1.3 0 1.7 0 1.3 0 2.1-0.4 3-1.3 0.8-0.8 1.7-1.7 2.1-3 0.4-1.3 0.8-2.5 1.3-3.4 0.4-1.3 0.4-2.1 1.3-3l-14.8-38.4h5.1l12.2 32.9 12.2-32.9h4.6l-14.4 37.6c-0.8 2.5-1.7 4.6-2.5 6.8 -0.8 1.7-1.7 3.4-2.5 4.6 -0.8 1.7-1.7 2.5-3 3 -1.3 0.4-2.5 1.3-3.8 1.3 -0.8 0-1.7 0-2.5 0 -0.4 0-1.7-0.4-2.1-0.4V742h0.4V741.6z"/></svg>
